<?xml version="1.0" encoding="UTF-8" standalone="no"?>
<svg
   xmlns:dc="http://purl.org/dc/elements/1.1/"
   xmlns:cc="http://creativecommons.org/ns#"
   xmlns:rdf="http://www.w3.org/1999/02/22-rdf-syntax-ns#"
   xmlns:svg="http://www.w3.org/2000/svg"
   xmlns="http://www.w3.org/2000/svg"
   xmlns:sodipodi="http://sodipodi.sourceforge.net/DTD/sodipodi-0.dtd"
   xmlns:inkscape="http://www.inkscape.org/namespaces/inkscape"
   id="svg4352"
   viewBox="0 0 43.2 364.25"
   version="1.1"
   sodipodi:docname="Mienophone.svg"
   inkscape:version="0.92.4 (5da689c313, 2019-01-14)">
  <metadata
     id="metadata130">
    <rdf:RDF>
      <cc:Work
         rdf:about="">
        <dc:format>image/svg+xml</dc:format>
        <dc:type
           rdf:resource="http://purl.org/dc/dcmitype/StillImage" />
      </cc:Work>
    </rdf:RDF>
  </metadata>
  <sodipodi:namedview
     pagecolor="#ffffff"
     bordercolor="#666666"
     borderopacity="1"
     objecttolerance="10"
     gridtolerance="10"
     guidetolerance="10"
     inkscape:pageopacity="0"
     inkscape:pageshadow="2"
     inkscape:window-width="1920"
     inkscape:window-height="1007"
     id="namedview128"
     showgrid="false"
     inkscape:zoom="2"
     inkscape:cx="-238.41187"
     inkscape:cy="155.68565"
     inkscape:window-x="0"
     inkscape:window-y="36"
     inkscape:window-maximized="1"
     inkscape:current-layer="layer2"
     inkscape:snap-bbox="true"
     inkscape:snap-bbox-midpoints="true"
     inkscape:snap-page="true" />
  <defs
     id="defs4">
    <style
       id="style2">.cls-1{fill:#e6e6e6;}.cls-2{fill:#ababab;}.cls-3{fill:#fff;}</style>
  </defs>
  <title
     id="title6">Artboard 1 copy</title>
  <g
     inkscape:groupmode="layer"
     id="layer3"
     inkscape:label="Layer 1"
     style="display:inline">
    <g
       id="layer1">
      <path
         id="path102534"
         class="cls-1"
         d="M 0.27,0.27 H 42.94 V 364 H 0.27 Z"
         inkscape:connector-curvature="0"
         style="fill:#e6e6e6" />
      <path
         id="path102536"
         class="cls-2"
         d="M 43.2,0 H 0 V 364.25 H 43.2 Z M 42.67,363.72 H 0.53 V 0.53 h 42.14 z"
         inkscape:connector-curvature="0"
         style="fill:#ababab" />
      <path
         id="path105238"
         d="M 35.42,39.38 A 2.84,2.84 0 0 0 32.58,36.55 H 10.81 A 2.84,2.84 0 0 0 8,39.38 v 29.51 a 2.84,2.84 0 0 0 2.84,2.83 h 21.74 a 2.84,2.84 0 0 0 2.84,-2.83 z"
         inkscape:connector-curvature="0" />
      <path
         class="cls-3"
         d="M 17.17,44.15 16.85,43 h -1.41 l -0.33,1.16 H 14.49 L 15.74,40 h 0.81 l 1.26,4.19 z m -0.86,-3 -0.14,-0.61 H 16.1 l -0.14,0.61 -0.37,1.32 h 1.11 z"
         id="path11"
         inkscape:connector-curvature="0"
         style="fill:#ffffff" />
      <path
         class="cls-3"
         d="M 19.36,41.64 19,40.86 v 0 0.79 2.5 H 18.4 V 40 h 0.73 l 1.25,2.52 0.32,0.77 h 0.08 L 20.73,42.5 V 40 h 0.62 v 4.19 h -0.74 z"
         id="path13"
         inkscape:connector-curvature="0"
         style="fill:#ffffff" />
      <path
         class="cls-3"
         d="m 24.68,43.53 h -0.07 a 0.9,0.9 0 0 1 -1,0.69 c -0.86,0 -1.51,-0.62 -1.51,-2.16 0,-1.54 0.62,-2.17 1.63,-2.17 a 1.43,1.43 0 0 1 1.44,0.92 l -0.52,0.31 a 0.9,0.9 0 0 0 -0.92,-0.67 c -0.59,0 -0.94,0.41 -0.94,1.1 v 1 c 0,0.68 0.35,1.09 0.94,1.09 a 0.82,0.82 0 0 0 0.9,-0.81 v -0.37 h -0.78 v -0.54 h 1.4 v 2.21 h -0.57 z"
         id="path15"
         inkscape:connector-curvature="0"
         style="fill:#ffffff" />
      <path
         class="cls-3"
         d="M 26.72,44.15 H 26.08 V 40 h 1.66 c 0.71,0 1.08,0.45 1.08,1.24 0,0.79 -0.24,1.06 -0.72,1.19 l 0.8,1.76 h -0.71 l -0.72,-1.71 h -0.75 z m 1,-2.24 c 0.3,0 0.46,-0.15 0.46,-0.5 V 41 c 0,-0.35 -0.16,-0.5 -0.46,-0.5 h -1 v 1.39 z"
         id="path17"
         inkscape:connector-curvature="0"
         style="fill:#ffffff" />
      <path
         d="m 14.34,22.47 0.2,-0.81 H 14.46 L 13.96,22.48 13,24 12.62,22.47 12.47,21.65 h -0.08 l -0.07,0.81 -0.45,2.25 H 11.09 L 12,20.53 h 0.86 l 0.31,1.47 0.09,0.66 h 0.06 L 13.66,22 14.6,20.52 h 0.91 l -0.84,4.19 h -0.78 z"
         id="path19"
         inkscape:connector-curvature="0" />
      <path
         d="m 15.34,24.72 0.13,-0.66 h 0.47 l 0.57,-2.87 h -0.46 l 0.13,-0.66 h 1.76 l -0.14,0.66 h -0.46 l -0.58,2.87 h 0.47 l -0.13,0.66 z"
         id="path21"
         inkscape:connector-curvature="0" />
      <path
         d="m 17.77,24.72 0.84,-4.19 h 2.45 l -0.15,0.72 h -1.62 l -0.2,1 h 1.43 l -0.14,0.72 H 19 l -0.21,1 h 1.67 l -0.14,0.72 z"
         id="path23"
         inkscape:connector-curvature="0" />
      <path
         d="m 22.47,22.48 -0.16,-0.82 h -0.09 l -0.08,0.81 -0.46,2.25 H 20.9 l 0.84,-4.19 h 1 l 0.47,2.24 0.16,0.82 h 0.09 L 23.55,22.77 24,20.53 h 0.78 l -0.84,4.19 h -1 z"
         id="path25"
         inkscape:connector-curvature="0" />
      <path
         d="M 24.89,23.4 A 5.61,5.61 0 0 1 25,22.31 c 0.25,-1.13 0.84,-1.85 1.95,-1.85 1.11,0 1.3,0.62 1.3,1.38 a 5.51,5.51 0 0 1 -0.14,1.09 c -0.25,1.14 -0.83,1.86 -1.94,1.86 -1.11,0 -1.28,-0.63 -1.28,-1.39 z m 2.37,-0.4 0.12,-0.63 a 2.32,2.32 0 0 0 0.06,-0.45 c 0,-0.48 -0.18,-0.69 -0.57,-0.69 -0.54,0 -0.78,0.25 -1,1.12 l -0.12,0.63 a 2.24,2.24 0 0 0 -0.06,0.44 c 0,0.48 0.18,0.69 0.57,0.69 0.39,0 0.82,-0.3 1,-1.11 z"
         id="path27"
         inkscape:connector-curvature="0" />
      <path
         d="m 14.06,30.26 0.84,-4.19 h 1.49 c 0.75,0 1.13,0.29 1.13,1.05 a 1.46,1.46 0 0 1 -1.47,1.57 H 15.2 l -0.32,1.57 z M 15.34,28 h 0.79 c 0.27,0 0.41,-0.14 0.48,-0.46 a 3,3 0 0 0 0.06,-0.41 c 0,-0.2 -0.08,-0.31 -0.32,-0.31 h -0.77 z"
         id="path29"
         inkscape:connector-curvature="0" />
      <path
         d="m 20.05,28.5 h -1.36 l -0.35,1.76 h -0.82 l 0.84,-4.19 h 0.82 l -0.34,1.71 h 1.35 l 0.35,-1.71 h 0.82 l -0.84,4.19 H 19.7 Z"
         id="path31"
         inkscape:connector-curvature="0" />
      <path
         d="m 21.5,28.94 a 5.61,5.61 0 0 1 0.14,-1.09 C 21.88,26.72 22.47,26 23.58,26 c 1.11,0 1.3,0.62 1.3,1.38 a 5.7,5.7 0 0 1 -0.13,1.1 c -0.25,1.13 -0.84,1.85 -1.95,1.85 -1.11,0 -1.3,-0.62 -1.3,-1.39 z m 2.36,-0.45 0.13,-0.63 a 2.23,2.23 0 0 0 0.06,-0.45 c 0,-0.48 -0.18,-0.69 -0.58,-0.69 -0.4,0 -0.78,0.26 -0.95,1.12 l -0.13,0.63 a 3.41,3.41 0 0 0 -0.06,0.44 c 0,0.48 0.18,0.69 0.58,0.69 0.4,0 0.78,-0.25 0.95,-1.11 z"
         id="path33"
         inkscape:connector-curvature="0" />
      <path
         d="m 26.59,28 -0.16,-0.82 h -0.09 l -0.09,0.81 -0.45,2.25 H 25 l 0.84,-4.19 h 1 l 0.47,2.24 0.16,0.82 h 0.08 l 0.09,-0.82 0.45,-2.24 h 0.78 L 28,30.26 h -1 z"
         id="path35"
         inkscape:connector-curvature="0" />
      <path
         d="m 28.82,30.26 0.84,-4.19 h 2.44 l -0.14,0.72 h -1.62 l -0.2,1 h 1.43 l -0.15,0.72 H 30 l -0.22,1 h 1.68 l -0.14,0.72 z"
         id="path37"
         inkscape:connector-curvature="0" />
      <path
         id="path105238-2"
         data-name="path105238"
         d="M 35.42,79.57 A 2.84,2.84 0 0 0 32.58,76.74 H 10.81 A 2.84,2.84 0 0 0 8,79.57 v 29.51 a 2.84,2.84 0 0 0 2.84,2.83 h 21.74 a 2.84,2.84 0 0 0 2.84,-2.83 z"
         inkscape:connector-curvature="0" />
      <path
         class="cls-3"
         d="m 11.22,83.3 c 0,-1.53 0.61,-2.17 1.58,-2.17 a 1.33,1.33 0 0 1 1.37,0.92 l -0.54,0.3 A 0.79,0.79 0 0 0 12.8,81.69 c -0.56,0 -0.9,0.42 -0.9,1.1 v 1 c 0,0.68 0.34,1.1 0.9,1.1 a 0.83,0.83 0 0 0 0.87,-0.71 l 0.52,0.32 a 1.38,1.38 0 0 1 -1.39,0.95 c -0.97,0.01 -1.58,-0.63 -1.58,-2.15 z"
         id="path40"
         inkscape:connector-curvature="0"
         style="fill:#ffffff" />
      <path
         class="cls-3"
         d="M 15.79,82.88 15.47,82.1 h -0.08 v 0.79 2.5 H 14.78 V 81.2 h 0.73 l 1.24,2.52 0.33,0.77 h 0.08 L 17.11,83.7 v -2.5 h 0.61 v 4.19 H 17 Z"
         id="path42"
         inkscape:connector-curvature="0"
         style="fill:#ffffff" />
      <path
         class="cls-3"
         d="m 20.12,81.76 v 3.63 H 19.48 V 81.76 H 18.37 V 81.2 h 2.86 v 0.56 z"
         id="path44"
         inkscape:connector-curvature="0"
         style="fill:#ffffff" />
      <path
         class="cls-3"
         d="M 24.69,82.81 V 82.1 h -0.08 l -0.28,0.7 -0.82,1.7 -0.81,-1.7 -0.29,-0.69 h -0.07 v 0.7 2.58 H 21.73 V 81.2 h 0.75 l 0.68,1.47 0.29,0.82 h 0.06 l 0.29,-0.82 0.67,-1.47 h 0.75 v 4.19 H 24.6 Z"
         id="path46"
         inkscape:connector-curvature="0"
         style="fill:#ffffff" />
      <path
         class="cls-3"
         d="M 26.23,85.39 V 81.2 h 1.66 c 0.71,0 1.08,0.45 1.08,1.25 0,0.8 -0.37,1.25 -1.08,1.25 h -1 v 1.69 z m 0.64,-2.26 h 1 c 0.3,0 0.46,-0.15 0.46,-0.49 v -0.38 c 0,-0.34 -0.16,-0.49 -0.46,-0.49 h -1 z"
         id="path48"
         inkscape:connector-curvature="0"
         style="fill:#ffffff" />
      <path
         class="cls-3"
         d="m 31.06,81.76 v 3.63 h -0.64 v -3.63 h -1.1 V 81.2 h 2.85 v 0.56 z"
         id="path50"
         inkscape:connector-curvature="0"
         style="fill:#ffffff" />
      <path
         id="path105238-3"
         data-name="path105238"
         d="m 35.42,119.76 a 2.84,2.84 0 0 0 -2.84,-2.83 H 10.81 A 2.84,2.84 0 0 0 8,119.76 v 29.51 a 2.84,2.84 0 0 0 2.84,2.83 h 21.74 a 2.84,2.84 0 0 0 2.84,-2.83 z"
         inkscape:connector-curvature="0" />
      <path
         class="cls-3"
         d="m 12.36,121.1 h 1.38 c 1,0 1.56,0.62 1.56,2.1 0,1.48 -0.57,2.09 -1.56,2.09 h -1.38 z m 1.38,3.63 c 0.54,0 0.88,-0.36 0.88,-1 v -1 c 0,-0.68 -0.34,-1 -0.88,-1 H 13 v 3.07 z"
         id="path53"
         inkscape:connector-curvature="0"
         style="fill:#ffffff" />
      <path
         class="cls-3"
         d="m 15.9,125.29 v -0.51 h 0.51 v -3.17 H 15.9 v -0.51 h 1.65 v 0.51 H 17 v 3.17 h 0.51 v 0.51 z"
         id="path55"
         inkscape:connector-curvature="0"
         style="fill:#ffffff" />
      <path
         class="cls-3"
         d="m 18.05,124.67 0.44,-0.4 a 1.14,1.14 0 0 0 1,0.53 c 0.49,0 0.74,-0.22 0.74,-0.68 0,-0.46 -0.16,-0.54 -0.58,-0.65 L 19.3,123.4 c -0.75,-0.17 -1.09,-0.52 -1.09,-1.19 0,-0.67 0.49,-1.18 1.33,-1.18 a 1.43,1.43 0 0 1 1.29,0.63 l -0.43,0.39 a 1,1 0 0 0 -0.87,-0.46 c -0.46,0 -0.69,0.18 -0.69,0.61 0,0.43 0.18,0.51 0.58,0.6 l 0.34,0.08 c 0.8,0.18 1.11,0.5 1.11,1.2 0,0.7 -0.51,1.28 -1.39,1.28 a 1.63,1.63 0 0 1 -1.43,-0.69 z"
         id="path57"
         inkscape:connector-curvature="0"
         style="fill:#ffffff" />
      <path
         class="cls-3"
         d="m 24,124.67 h -0.07 a 0.9,0.9 0 0 1 -1,0.69 c -0.86,0 -1.51,-0.62 -1.51,-2.16 0,-1.54 0.58,-2.2 1.58,-2.2 a 1.44,1.44 0 0 1 1.44,0.93 l -0.52,0.3 A 0.9,0.9 0 0 0 23,121.57 c -0.59,0 -1,0.4 -1,1.09 v 1 c 0,0.68 0.36,1.09 1,1.09 a 0.82,0.82 0 0 0 0.9,-0.81 v -0.37 h -0.78 v -0.54 h 1.39 v 2.21 H 24 Z"
         id="path59"
         inkscape:connector-curvature="0"
         style="fill:#ffffff" />
      <path
         class="cls-3"
         d="m 25.09,124.67 0.44,-0.4 a 1.14,1.14 0 0 0 1,0.53 c 0.48,0 0.74,-0.22 0.74,-0.68 0,-0.46 -0.16,-0.54 -0.59,-0.65 l -0.34,-0.07 c -0.75,-0.17 -1.1,-0.52 -1.1,-1.19 0,-0.67 0.5,-1.18 1.34,-1.18 a 1.43,1.43 0 0 1 1.29,0.63 l -0.44,0.39 a 1,1 0 0 0 -0.87,-0.46 c -0.45,0 -0.68,0.18 -0.68,0.61 0,0.43 0.17,0.51 0.58,0.6 l 0.34,0.08 c 0.8,0.18 1.11,0.5 1.11,1.2 0,0.7 -0.51,1.28 -1.39,1.28 a 1.61,1.61 0 0 1 -1.43,-0.69 z"
         id="path61"
         inkscape:connector-curvature="0"
         style="fill:#ffffff" />
      <path
         class="cls-3"
         d="m 29.92,121.66 v 3.63 h -0.63 v -3.63 H 28.18 V 121.1 H 31 v 0.56 z"
         id="path63"
         inkscape:connector-curvature="0"
         style="fill:#ffffff" />
      <path
         id="path105238-4"
         data-name="path105238"
         d="m 35.42,160 a 2.84,2.84 0 0 0 -2.84,-2.83 H 10.81 A 2.84,2.84 0 0 0 8,160 v 29.51 a 2.84,2.84 0 0 0 2.84,2.83 h 21.74 a 2.84,2.84 0 0 0 2.84,-2.83 z"
         inkscape:connector-curvature="0" />
      <path
         class="cls-3"
         d="M 15.34,166.19 V 162 h 2.37 v 0.56 H 16 v 1.22 h 1.53 v 0.55 H 16 v 1.85 z"
         id="path66"
         inkscape:connector-curvature="0"
         style="fill:#ffffff" />
      <path
         class="cls-3"
         d="M 18.43,166.19 V 162 h 2.43 v 0.56 h -1.79 v 1.22 h 1.62 v 0.55 h -1.62 v 1.3 h 1.79 v 0.55 z"
         id="path68"
         inkscape:connector-curvature="0"
         style="fill:#ffffff" />
      <path
         class="cls-3"
         d="M 24,166.19 23.67,165 h -1.41 l -0.32,1.15 H 21.31 L 22.57,162 h 0.81 l 1.26,4.18 z m -0.87,-3 -0.13,-0.61 h -0.08 l -0.13,0.61 -0.37,1.32 h 1.1 z"
         id="path70"
         inkscape:connector-curvature="0"
         style="fill:#ffffff" />
      <path
         class="cls-3"
         d="M 25.86,166.19 H 25.23 V 162 h 1.65 c 0.71,0 1.09,0.44 1.09,1.24 0,0.65 -0.25,1.05 -0.72,1.19 l 0.79,1.75 h -0.7 l -0.73,-1.71 h -0.75 z m 1,-2.24 c 0.3,0 0.46,-0.15 0.46,-0.5 v -0.39 c 0,-0.34 -0.16,-0.49 -0.46,-0.49 h -1 V 164 Z"
         id="path72"
         inkscape:connector-curvature="0"
         style="fill:#ffffff" />
      <path
         id="path105238-5"
         data-name="path105238"
         d="m 35.42,200.14 a 2.84,2.84 0 0 0 -2.84,-2.83 H 10.81 A 2.84,2.84 0 0 0 8,200.14 v 29.51 a 2.84,2.84 0 0 0 2.84,2.83 h 21.74 a 2.84,2.84 0 0 0 2.84,-2.83 z"
         inkscape:connector-curvature="0" />
      <path
         class="cls-3"
         d="m 15.41,204.47 h -1.66 v 1.85 h -0.64 v -4.19 h 0.64 v 1.79 h 1.66 v -1.79 h 0.64 v 4.19 h -0.64 z"
         id="path75"
         inkscape:connector-curvature="0"
         style="fill:#ffffff" />
      <path
         class="cls-3"
         d="M 19.32,206.32 19,205.16 h -1.42 l -0.32,1.16 h -0.62 l 1.25,-4.19 h 0.81 l 1.3,4.19 z m -0.87,-3 -0.13,-0.61 h -0.08 l -0.13,0.61 -0.37,1.32 h 1.1 z"
         id="path77"
         inkscape:connector-curvature="0"
         style="fill:#ffffff" />
      <path
         class="cls-3"
         d="m 20.55,206.32 v -4.19 h 1.65 c 0.72,0 1.09,0.45 1.09,1.25 0,0.8 -0.37,1.25 -1.09,1.25 h -1 v 1.69 z m 0.63,-2.25 h 1 c 0.3,0 0.46,-0.15 0.46,-0.5 v -0.38 c 0,-0.34 -0.16,-0.49 -0.46,-0.49 h -1 z"
         id="path79"
         inkscape:connector-curvature="0"
         style="fill:#ffffff" />
      <path
         class="cls-3"
         d="m 24,206.32 v -4.19 h 1.65 c 0.72,0 1.09,0.45 1.09,1.25 0,0.8 -0.37,1.25 -1.09,1.25 h -1 v 1.69 z m 0.63,-2.25 h 1 c 0.3,0 0.46,-0.15 0.46,-0.5 v -0.38 c 0,-0.34 -0.16,-0.49 -0.46,-0.49 h -1 z"
         id="path81"
         inkscape:connector-curvature="0"
         style="fill:#ffffff" />
      <path
         class="cls-3"
         d="m 28.36,206.32 v -1.62 l -1.3,-2.57 h 0.71 l 0.87,1.87 h 0.08 l 0.86,-1.87 h 0.7 L 29,204.7 v 1.62 z"
         id="path83"
         inkscape:connector-curvature="0"
         style="fill:#ffffff" />
      <path
         id="path105238-6"
         data-name="path105238"
         d="M 35.42,240.33 A 2.84,2.84 0 0 0 32.58,237.5 H 10.81 A 2.84,2.84 0 0 0 8,240.33 v 29.51 a 2.84,2.84 0 0 0 2.84,2.83 h 21.74 a 2.84,2.84 0 0 0 2.84,-2.83 z"
         inkscape:connector-curvature="0" />
      <path
         class="cls-3"
         d="m 12.84,243.71 -0.32,-0.78 h -0.08 l 0.05,0.79 v 2.5 H 11.88 V 242 h 0.73 l 1.25,2.51 0.32,0.78 h 0.08 V 244.5 242 h 0.61 v 4.18 h -0.74 z"
         id="path86"
         inkscape:connector-curvature="0"
         style="fill:#ffffff" />
      <path
         class="cls-3"
         d="M 15.75,246.22 V 242 h 2.43 v 0.56 h -1.8 v 1.22 H 18 v 0.55 h -1.62 v 1.3 h 1.8 v 0.55 z"
         id="path88"
         inkscape:connector-curvature="0"
         style="fill:#ffffff" />
      <path
         class="cls-3"
         d="m 19.56,242 v 2.71 c 0,0.67 0.21,1 0.79,1 0.58,0 0.8,-0.31 0.8,-1 V 242 h 0.63 v 2.61 c 0,1.14 -0.37,1.65 -1.43,1.65 -1.06,0 -1.42,-0.51 -1.42,-1.65 V 242 Z"
         id="path90"
         inkscape:connector-curvature="0"
         style="fill:#ffffff" />
      <path
         class="cls-3"
         d="m 24.1,242.6 v 3.62 H 23.46 V 242.6 H 22.35 V 242 h 2.86 v 0.56 z"
         id="path92"
         inkscape:connector-curvature="0"
         style="fill:#ffffff" />
      <path
         class="cls-3"
         d="M 26.44,246.22 H 25.8 V 242 h 1.66 c 0.71,0 1.08,0.44 1.08,1.24 0,0.65 -0.24,1.06 -0.72,1.19 l 0.8,1.75 h -0.71 l -0.72,-1.7 h -0.75 z m 1,-2.24 c 0.3,0 0.47,-0.15 0.47,-0.5 v -0.39 c 0,-0.34 -0.17,-0.49 -0.47,-0.49 h -1 v 1.4 z"
         id="path94"
         inkscape:connector-curvature="0"
         style="fill:#ffffff" />
      <path
         class="cls-3"
         d="M 29.35,246.22 V 242 H 30 v 3.63 h 1.52 v 0.55 z"
         id="path96"
         inkscape:connector-curvature="0"
         style="fill:#ffffff" />
      <path
         id="path105238-7"
         data-name="path105238"
         d="m 35.42,280.52 a 2.84,2.84 0 0 0 -2.84,-2.83 H 10.81 A 2.84,2.84 0 0 0 8,280.52 V 310 a 2.85,2.85 0 0 0 2.84,2.83 H 32.58 A 2.85,2.85 0 0 0 35.42,310 Z"
         inkscape:connector-curvature="0" />
      <path
         class="cls-3"
         d="M 11.51,286.4 12,286 a 1.16,1.16 0 0 0 1,0.53 c 0.49,0 0.75,-0.23 0.75,-0.68 0,-0.45 -0.17,-0.55 -0.59,-0.65 l -0.34,-0.07 c -0.75,-0.17 -1.1,-0.52 -1.1,-1.19 0,-0.67 0.5,-1.18 1.33,-1.18 a 1.45,1.45 0 0 1 1.3,0.63 l -0.44,0.38 a 1,1 0 0 0 -0.87,-0.45 c -0.46,0 -0.68,0.18 -0.68,0.6 0,0.42 0.17,0.51 0.57,0.61 l 0.34,0.08 c 0.8,0.18 1.11,0.5 1.11,1.19 A 1.21,1.21 0 0 1 13,287.09 1.67,1.67 0 0 1 11.51,286.4 Z"
         id="path99"
         inkscape:connector-curvature="0"
         style="fill:#ffffff" />
      <path
         class="cls-3"
         d="M 17.36,287 17,285.86 H 15.62 L 15.3,287 h -0.62 l 1.25,-4.19 h 0.81 L 18,287 Z m -0.87,-3 -0.13,-0.61 h -0.08 l -0.13,0.61 -0.37,1.32 h 1.1 z"
         id="path101"
         inkscape:connector-curvature="0"
         style="fill:#ffffff" />
      <path
         class="cls-3"
         d="M 18.59,282.83 H 20 c 1,0 1.56,0.62 1.56,2.09 0,1.47 -0.56,2.08 -1.56,2.08 h -1.41 z m 1.41,3.63 c 0.54,0 0.88,-0.37 0.88,-1 v -1 c 0,-0.69 -0.34,-1.05 -0.88,-1.05 h -0.75 v 3.07 z"
         id="path103"
         inkscape:connector-curvature="0"
         style="fill:#ffffff" />
      <path
         class="cls-3"
         d="m 23.25,284.5 -0.32,-0.78 h -0.08 v 0.8 2.48 h -0.61 v -4.19 H 23 l 1.25,2.51 0.32,0.78 h 0.08 l -0.05,-0.79 v -2.5 h 0.61 V 287 H 24.5 Z"
         id="path105"
         inkscape:connector-curvature="0"
         style="fill:#ffffff" />
      <path
         class="cls-3"
         d="m 25.89,286.4 0.44,-0.4 a 1.14,1.14 0 0 0 1,0.53 c 0.48,0 0.74,-0.23 0.74,-0.68 0,-0.45 -0.16,-0.55 -0.59,-0.65 l -0.34,-0.07 c -0.75,-0.17 -1.1,-0.52 -1.1,-1.19 0,-0.67 0.5,-1.18 1.34,-1.18 a 1.43,1.43 0 0 1 1.29,0.63 l -0.44,0.38 a 1,1 0 0 0 -0.87,-0.45 c -0.45,0 -0.68,0.18 -0.68,0.6 0,0.42 0.17,0.51 0.58,0.61 l 0.34,0.08 c 0.8,0.18 1.11,0.5 1.11,1.19 a 1.21,1.21 0 0 1 -1.39,1.29 1.64,1.64 0 0 1 -1.43,-0.69 z"
         id="path107"
         inkscape:connector-curvature="0"
         style="fill:#ffffff" />
      <path
         class="cls-3"
         d="m 29.09,286.4 0.44,-0.4 a 1.14,1.14 0 0 0 1,0.53 c 0.48,0 0.74,-0.23 0.74,-0.68 0,-0.45 -0.16,-0.55 -0.59,-0.65 l -0.34,-0.07 c -0.75,-0.17 -1.1,-0.52 -1.1,-1.19 0,-0.67 0.5,-1.18 1.33,-1.18 a 1.44,1.44 0 0 1 1.3,0.63 l -0.44,0.38 a 1,1 0 0 0 -0.87,-0.45 c -0.45,0 -0.68,0.18 -0.68,0.6 0,0.42 0.17,0.51 0.57,0.61 l 0.35,0.08 c 0.79,0.18 1.11,0.5 1.11,1.19 a 1.21,1.21 0 0 1 -1.39,1.29 1.64,1.64 0 0 1 -1.43,-0.69 z"
         id="path109"
         inkscape:connector-curvature="0"
         style="fill:#ffffff" />
      <path
         id="path105238-8"
         data-name="path105238"
         d="m 35.42,320.71 a 2.84,2.84 0 0 0 -2.84,-2.83 H 10.81 A 2.84,2.84 0 0 0 8,320.71 v 29.51 a 2.85,2.85 0 0 0 2.84,2.83 h 21.74 a 2.85,2.85 0 0 0 2.84,-2.83 z"
         inkscape:connector-curvature="0" />
      <path
         class="cls-3"
         d="M 11.57,326.41 12,326 a 1.16,1.16 0 0 0 1,0.53 c 0.49,0 0.75,-0.22 0.75,-0.68 0,-0.46 -0.17,-0.54 -0.59,-0.65 l -0.34,-0.07 c -0.75,-0.17 -1.1,-0.52 -1.1,-1.19 0,-0.67 0.5,-1.18 1.33,-1.18 a 1.45,1.45 0 0 1 1.3,0.63 l -0.44,0.39 a 1,1 0 0 0 -0.87,-0.46 c -0.46,0 -0.68,0.18 -0.68,0.61 0,0.43 0.17,0.51 0.57,0.6 l 0.34,0.08 c 0.8,0.18 1.11,0.5 1.11,1.2 A 1.21,1.21 0 0 1 13,327.1 1.64,1.64 0 0 1 11.57,326.41 Z"
         id="path112"
         inkscape:connector-curvature="0"
         style="fill:#ffffff" />
      <path
         class="cls-3"
         d="m 15.67,322.84 v 2.71 c 0,0.67 0.2,1 0.79,1 0.59,0 0.79,-0.32 0.79,-1 v -2.71 h 0.64 v 2.61 c 0,1.14 -0.37,1.65 -1.43,1.65 -1.06,0 -1.46,-0.51 -1.46,-1.65 v -2.61 z"
         id="path114"
         inkscape:connector-curvature="0"
         style="fill:#ffffff" />
      <path
         class="cls-3"
         d="m 19.42,327 h -0.63 v -4.19 h 1.65 c 0.71,0 1.09,0.45 1.09,1.25 0,0.64 -0.25,1.05 -0.72,1.18 L 21.6,327 h -0.7 l -0.73,-1.71 h -0.75 z m 1,-2.24 c 0.3,0 0.46,-0.15 0.46,-0.5 v -0.39 c 0,-0.35 -0.16,-0.5 -0.46,-0.5 h -1 v 1.39 z"
         id="path116"
         inkscape:connector-curvature="0"
         style="fill:#ffffff" />
      <path
         class="cls-3"
         d="m 22.34,327 v -4.19 H 24 c 0.72,0 1.09,0.45 1.09,1.25 0,0.8 -0.37,1.25 -1.09,1.25 H 23 V 327 Z m 0.63,-2.25 h 1 c 0.3,0 0.46,-0.16 0.46,-0.5 v -0.38 c 0,-0.34 -0.16,-0.49 -0.46,-0.49 H 23 Z"
         id="path118"
         inkscape:connector-curvature="0"
         style="fill:#ffffff" />
      <path
         class="cls-3"
         d="m 26.38,327 h -0.64 v -4.19 h 1.66 c 0.71,0 1.08,0.45 1.08,1.25 0,0.64 -0.24,1.05 -0.71,1.18 l 0.79,1.76 h -0.71 l -0.72,-1.71 h -0.75 z m 1,-2.24 c 0.3,0 0.46,-0.15 0.46,-0.5 v -0.39 c 0,-0.35 -0.16,-0.5 -0.46,-0.5 h -1 v 1.39 z"
         id="path120"
         inkscape:connector-curvature="0"
         style="fill:#ffffff" />
      <path
         class="cls-3"
         d="m 29,326.41 0.44,-0.4 a 1.14,1.14 0 0 0 1,0.53 c 0.48,0 0.74,-0.22 0.74,-0.68 0,-0.46 -0.16,-0.54 -0.59,-0.65 l -0.34,-0.07 c -0.75,-0.17 -1.1,-0.52 -1.1,-1.19 0,-0.67 0.5,-1.18 1.33,-1.18 a 1.44,1.44 0 0 1 1.3,0.63 l -0.44,0.39 a 1,1 0 0 0 -0.87,-0.46 c -0.45,0 -0.68,0.18 -0.68,0.61 0,0.43 0.17,0.51 0.57,0.6 l 0.35,0.08 c 0.79,0.18 1.11,0.5 1.11,1.2 0,0.7 -0.51,1.28 -1.39,1.28 A 1.61,1.61 0 0 1 29,326.41 Z"
         id="path122"
         inkscape:connector-curvature="0"
         style="fill:#ffffff" />
      <path
         d="m 24.26,11.51 h -0.82 v 0.82 H 23 V 11.51 H 22.2 V 11.09 H 23 v -0.82 h 0.42 v 0.82 h 0.82 z m -2.84,5.16 c -1.51,0 -2.74,-0.88 -2.74,-2 0,-0.89 2.28,-0.94 2.74,-0.94 0.46,0 2.73,0.05 2.73,0.94 0,1.12 -1.23,2 -2.73,2 z m -3.07,-5.58 h 0.82 v -0.82 h 0.42 v 0.82 h 0.82 v 0.42 h -0.82 v 0.82 h -0.42 v -0.82 h -0.82 z m 3.09,-3.3 a 5,5 0 1 0 5,5 5,5 0 0 0 -5,-5 z"
         id="path124"
         inkscape:connector-curvature="0" />
    </g>
  </g>
  <g
     inkscape:groupmode="layer"
     id="layer2"
     inkscape:label="components"
     style="display:inline">
    <circle
       style="fill:#0000ff;stroke-width:0.66551232;image-rendering:auto"
       id="circle887"
       cx="21.709999"
       cy="54.134998"
       inkscape:label="anger"
       r="4" />
    <circle
       style="display:inline;fill:#0000ff;stroke-width:0.66551232"
       id="circle888"
       cx="21.709999"
       cy="94.324997"
       inkscape:label="contempt"
       r="4" />
    <circle
       style="display:inline;fill:#0000ff;stroke-width:0.66551232"
       id="circle889"
       cx="21.709999"
       cy="134.515"
       inkscape:label="disgust"
       r="4" />
    <circle
       style="display:inline;fill:#0000ff;stroke-width:0.66551232"
       id="circle890"
       cx="21.709999"
       cy="174.755"
       inkscape:label="fear"
       r="4" />
    <circle
       style="display:inline;fill:#0000ff;stroke-width:0.66551232"
       id="circle891"
       cx="21.709999"
       cy="214.895"
       inkscape:label="happyness"
       r="4" />
    <circle
       style="display:inline;fill:#0000ff;stroke-width:0.66551232"
       id="circle892"
       cx="21.709999"
       cy="255.08501"
       inkscape:label="neutral"
       r="4" />
    <circle
       style="display:inline;fill:#0000ff;stroke-width:0.66551232"
       id="circle893"
       cx="21.709999"
       cy="295.26001"
       inkscape:label="sadness"
       r="4" />
    <circle
       style="display:inline;fill:#0000ff;stroke-width:0.66551232"
       id="circle894"
       cx="21.709999"
       cy="335.465"
       inkscape:label="surprise"
       r="4" />
  </g>
</svg>
