<svg id="svg4352" xmlns="http://www.w3.org/2000/svg" viewBox="0 0 43.2 364.25"><defs><style>.cls-1{fill:#e6e6e6;}.cls-2{fill:#ababab;}.cls-3{fill:#fff;}</style></defs><title>Artboard 1 copy</title><g id="layer1"><path id="path102534" class="cls-1" d="M.27.27H42.94V364H.27Z"/><path id="path102536" class="cls-2" d="M43.2,0H0V364.25H43.2Zm-.53,363.72H.53V.53H42.67Z"/><path id="path105238" d="M35.42,39.38a2.84,2.84,0,0,0-2.84-2.83H10.81A2.84,2.84,0,0,0,8,39.38V68.89a2.84,2.84,0,0,0,2.84,2.83H32.58a2.84,2.84,0,0,0,2.84-2.83Z"/><path class="cls-3" d="M17.17,44.15,16.85,43H15.44l-.33,1.16h-.62L15.74,40h.81l1.26,4.19Zm-.86-3-.14-.61H16.1l-.14.61-.37,1.32H16.7Z"/><path class="cls-3" d="M19.36,41.64,19,40.86H19l0,.79v2.5H18.4V40h.73l1.25,2.52.32.77h.08l-.05-.79V40h.62v4.19h-.74Z"/><path class="cls-3" d="M24.68,43.53h-.07a.9.9,0,0,1-1,.69c-.86,0-1.51-.62-1.51-2.16s.62-2.17,1.63-2.17a1.43,1.43,0,0,1,1.44.92l-.52.31a.9.9,0,0,0-.92-.67c-.59,0-.94.41-.94,1.1v1c0,.68.35,1.09.94,1.09a.82.82,0,0,0,.9-.81v-.37h-.78v-.54h1.4v2.21h-.57Z"/><path class="cls-3" d="M26.72,44.15h-.64V40h1.66c.71,0,1.08.45,1.08,1.24s-.24,1.06-.72,1.19l.8,1.76h-.71l-.72-1.71h-.75Zm1-2.24c.3,0,.46-.15.46-.5V41c0-.35-.16-.5-.46-.5h-1v1.39Z"/><path d="M14.34,22.47l.2-.81h-.08l-.5.82L13,24l-.38-1.53-.15-.82h-.08l-.07.81-.45,2.25h-.78L12,20.53h.86L13.17,22l.09.66h.06l.34-.66.94-1.48h.91l-.84,4.19h-.78Z"/><path d="M15.34,24.72l.13-.66h.47l.57-2.87h-.46l.13-.66h1.76l-.14.66h-.46l-.58,2.87h.47l-.13.66Z"/><path d="M17.77,24.72l.84-4.19h2.45l-.15.72H19.29l-.2,1h1.43l-.14.72H19l-.21,1h1.67l-.14.72Z"/><path d="M22.47,22.48l-.16-.82h-.09l-.08.81-.46,2.25H20.9l.84-4.19h1l.47,2.24.16.82h.09l.09-.82L24,20.53h.78l-.84,4.19h-1Z"/><path d="M24.89,23.4A5.61,5.61,0,0,1,25,22.31c.25-1.13.84-1.85,1.95-1.85s1.3.62,1.3,1.38a5.51,5.51,0,0,1-.14,1.09c-.25,1.14-.83,1.86-1.94,1.86S24.89,24.16,24.89,23.4ZM27.26,23l.12-.63a2.32,2.32,0,0,0,.06-.45c0-.48-.18-.69-.57-.69-.54,0-.78.25-1,1.12l-.12.63a2.24,2.24,0,0,0-.06.44c0,.48.18.69.57.69S27.08,23.81,27.26,23Z"/><path d="M14.06,30.26l.84-4.19h1.49c.75,0,1.13.29,1.13,1.05a1.46,1.46,0,0,1-1.47,1.57H15.2l-.32,1.57ZM15.34,28h.79c.27,0,.41-.14.48-.46a3,3,0,0,0,.06-.41c0-.2-.08-.31-.32-.31h-.77Z"/><path d="M20.05,28.5H18.69l-.35,1.76h-.82l.84-4.19h.82l-.34,1.71h1.35l.35-1.71h.82l-.84,4.19H19.7Z"/><path d="M21.5,28.94a5.61,5.61,0,0,1,.14-1.09c.24-1.13.83-1.85,1.94-1.85s1.3.62,1.3,1.38a5.7,5.7,0,0,1-.13,1.1c-.25,1.13-.84,1.85-1.95,1.85S21.5,29.71,21.5,28.94Zm2.36-.45.13-.63a2.23,2.23,0,0,0,.06-.45c0-.48-.18-.69-.58-.69s-.78.26-.95,1.12l-.13.63a3.41,3.41,0,0,0-.06.44c0,.48.18.69.58.69S23.69,29.35,23.86,28.49Z"/><path d="M26.59,28l-.16-.82h-.09l-.09.81-.45,2.25H25l.84-4.19h1l.47,2.24.16.82h.08l.09-.82.45-2.24h.78L28,30.26h-1Z"/><path d="M28.82,30.26l.84-4.19H32.1l-.14.72H30.34l-.2,1h1.43l-.15.72H30l-.22,1h1.68l-.14.72Z"/><path id="path105238-2" data-name="path105238" d="M35.42,79.57a2.84,2.84,0,0,0-2.84-2.83H10.81A2.84,2.84,0,0,0,8,79.57v29.51a2.84,2.84,0,0,0,2.84,2.83H32.58a2.84,2.84,0,0,0,2.84-2.83Z"/><path class="cls-3" d="M11.22,83.3c0-1.53.61-2.17,1.58-2.17a1.33,1.33,0,0,1,1.37.92l-.54.3a.79.79,0,0,0-.83-.66c-.56,0-.9.42-.9,1.1v1c0,.68.34,1.1.9,1.1a.83.83,0,0,0,.87-.71l.52.32a1.38,1.38,0,0,1-1.39.95C11.83,85.46,11.22,84.82,11.22,83.3Z"/><path class="cls-3" d="M15.79,82.88l-.32-.78h-.08l0,.79v2.5h-.61V81.2h.73l1.24,2.52.33.77h.08l-.05-.79V81.2h.61v4.19H17Z"/><path class="cls-3" d="M20.12,81.76v3.63h-.64V81.76H18.37V81.2h2.86v.56Z"/><path class="cls-3" d="M24.69,82.81l0-.71h-.08l-.28.7-.82,1.7-.81-1.7-.29-.69h-.07l0,.7v2.58h-.61V81.2h.75l.68,1.47.29.82h.06l.29-.82.67-1.47h.75v4.19h-.62Z"/><path class="cls-3" d="M26.23,85.39V81.2h1.66c.71,0,1.08.45,1.08,1.25s-.37,1.25-1.08,1.25h-1v1.69Zm.64-2.26h1c.3,0,.46-.15.46-.49v-.38c0-.34-.16-.49-.46-.49h-1Z"/><path class="cls-3" d="M31.06,81.76v3.63h-.64V81.76h-1.1V81.2h2.85v.56Z"/><path id="path105238-3" data-name="path105238" d="M35.42,119.76a2.84,2.84,0,0,0-2.84-2.83H10.81A2.84,2.84,0,0,0,8,119.76v29.51a2.84,2.84,0,0,0,2.84,2.83H32.58a2.84,2.84,0,0,0,2.84-2.83Z"/><path class="cls-3" d="M12.36,121.1h1.38c1,0,1.56.62,1.56,2.1s-.57,2.09-1.56,2.09H12.36Zm1.38,3.63c.54,0,.88-.36.88-1v-1c0-.68-.34-1-.88-1H13v3.07Z"/><path class="cls-3" d="M15.9,125.29v-.51h.51v-3.17H15.9v-.51h1.65v.51H17v3.17h.51v.51Z"/><path class="cls-3" d="M18.05,124.67l.44-.4a1.14,1.14,0,0,0,1,.53c.49,0,.74-.22.74-.68s-.16-.54-.58-.65l-.35-.07c-.75-.17-1.09-.52-1.09-1.19s.49-1.18,1.33-1.18a1.43,1.43,0,0,1,1.29.63l-.43.39a1,1,0,0,0-.87-.46c-.46,0-.69.18-.69.61s.18.51.58.6l.34.08c.8.18,1.11.5,1.11,1.2s-.51,1.28-1.39,1.28A1.63,1.63,0,0,1,18.05,124.67Z"/><path class="cls-3" d="M24,124.67h-.07a.9.9,0,0,1-1,.69c-.86,0-1.51-.62-1.51-2.16S22,121,23,121a1.44,1.44,0,0,1,1.44.93l-.52.3a.9.9,0,0,0-.92-.66c-.59,0-1,.4-1,1.09v1c0,.68.36,1.09,1,1.09a.82.82,0,0,0,.9-.81v-.37h-.78v-.54h1.39v2.21H24Z"/><path class="cls-3" d="M25.09,124.67l.44-.4a1.14,1.14,0,0,0,1,.53c.48,0,.74-.22.74-.68s-.16-.54-.59-.65l-.34-.07c-.75-.17-1.1-.52-1.1-1.19s.5-1.18,1.34-1.18a1.43,1.43,0,0,1,1.29.63l-.44.39a1,1,0,0,0-.87-.46c-.45,0-.68.18-.68.61s.17.51.58.6l.34.08c.8.18,1.11.5,1.11,1.2s-.51,1.28-1.39,1.28A1.61,1.61,0,0,1,25.09,124.67Z"/><path class="cls-3" d="M29.92,121.66v3.63h-.63v-3.63H28.18v-.56H31v.56Z"/><path id="path105238-4" data-name="path105238" d="M35.42,160a2.84,2.84,0,0,0-2.84-2.83H10.81A2.84,2.84,0,0,0,8,160v29.51a2.84,2.84,0,0,0,2.84,2.83H32.58a2.84,2.84,0,0,0,2.84-2.83Z"/><path class="cls-3" d="M15.34,166.19V162h2.37v.56H16v1.22h1.53v.55H16v1.85Z"/><path class="cls-3" d="M18.43,166.19V162h2.43v.56H19.07v1.22h1.62v.55H19.07v1.3h1.79v.55Z"/><path class="cls-3" d="M24,166.19,23.67,165H22.26l-.32,1.15h-.63L22.57,162h.81l1.26,4.18Zm-.87-3-.13-.61h-.08l-.13.61-.37,1.32h1.1Z"/><path class="cls-3" d="M25.86,166.19h-.63V162h1.65c.71,0,1.09.44,1.09,1.24,0,.65-.25,1.05-.72,1.19l.79,1.75h-.7l-.73-1.71h-.75Zm1-2.24c.3,0,.46-.15.46-.5v-.39c0-.34-.16-.49-.46-.49h-1V164Z"/><path id="path105238-5" data-name="path105238" d="M35.42,200.14a2.84,2.84,0,0,0-2.84-2.83H10.81A2.84,2.84,0,0,0,8,200.14v29.51a2.84,2.84,0,0,0,2.84,2.83H32.58a2.84,2.84,0,0,0,2.84-2.83Z"/><path class="cls-3" d="M15.41,204.47H13.75v1.85h-.64v-4.19h.64v1.79h1.66v-1.79h.64v4.19h-.64Z"/><path class="cls-3" d="M19.32,206.32,19,205.16H17.58l-.32,1.16h-.62l1.25-4.19h.81L20,206.32Zm-.87-3-.13-.61h-.08l-.13.61-.37,1.32h1.1Z"/><path class="cls-3" d="M20.55,206.32v-4.19H22.2c.72,0,1.09.45,1.09,1.25s-.37,1.25-1.09,1.25h-1v1.69Zm.63-2.25h1c.3,0,.46-.15.46-.5v-.38c0-.34-.16-.49-.46-.49h-1Z"/><path class="cls-3" d="M24,206.32v-4.19h1.65c.72,0,1.09.45,1.09,1.25s-.37,1.25-1.09,1.25h-1v1.69Zm.63-2.25h1c.3,0,.46-.15.46-.5v-.38c0-.34-.16-.49-.46-.49h-1Z"/><path class="cls-3" d="M28.36,206.32V204.7l-1.3-2.57h.71l.87,1.87h.08l.86-1.87h.7L29,204.7v1.62Z"/><path id="path105238-6" data-name="path105238" d="M35.42,240.33a2.84,2.84,0,0,0-2.84-2.83H10.81A2.84,2.84,0,0,0,8,240.33v29.51a2.84,2.84,0,0,0,2.84,2.83H32.58a2.84,2.84,0,0,0,2.84-2.83Z"/><path class="cls-3" d="M12.84,243.71l-.32-.78h-.08l.05.79v2.5h-.61V242h.73l1.25,2.51.32.78h.08l0-.79V242h.61v4.18h-.74Z"/><path class="cls-3" d="M15.75,246.22V242h2.43v.56h-1.8v1.22H18v.55H16.38v1.3h1.8v.55Z"/><path class="cls-3" d="M19.56,242v2.71c0,.67.21,1,.79,1s.8-.31.8-1V242h.63v2.61c0,1.14-.37,1.65-1.43,1.65s-1.42-.51-1.42-1.65V242Z"/><path class="cls-3" d="M24.1,242.6v3.62h-.64V242.6H22.35V242h2.86v.56Z"/><path class="cls-3" d="M26.44,246.22H25.8V242h1.66c.71,0,1.08.44,1.08,1.24,0,.65-.24,1.06-.72,1.19l.8,1.75h-.71l-.72-1.7h-.75Zm1-2.24c.3,0,.47-.15.47-.5v-.39c0-.34-.17-.49-.47-.49h-1V244Z"/><path class="cls-3" d="M29.35,246.22V242H30v3.63h1.52v.55Z"/><path id="path105238-7" data-name="path105238" d="M35.42,280.52a2.84,2.84,0,0,0-2.84-2.83H10.81A2.84,2.84,0,0,0,8,280.52V310a2.85,2.85,0,0,0,2.84,2.83H32.58A2.85,2.85,0,0,0,35.42,310Z"/><path class="cls-3" d="M11.51,286.4,12,286a1.16,1.16,0,0,0,1,.53c.49,0,.75-.23.75-.68s-.17-.55-.59-.65l-.34-.07c-.75-.17-1.1-.52-1.1-1.19s.5-1.18,1.33-1.18a1.45,1.45,0,0,1,1.3.63l-.44.38a1,1,0,0,0-.87-.45c-.46,0-.68.18-.68.6s.17.51.57.61l.34.08c.8.18,1.11.5,1.11,1.19a1.21,1.21,0,0,1-1.38,1.29A1.67,1.67,0,0,1,11.51,286.4Z"/><path class="cls-3" d="M17.36,287,17,285.86H15.62L15.3,287h-.62l1.25-4.19h.81L18,287Zm-.87-3-.13-.61h-.08l-.13.61-.37,1.32h1.1Z"/><path class="cls-3" d="M18.59,282.83H20c1,0,1.56.62,1.56,2.09S21,287,20,287H18.59ZM20,286.46c.54,0,.88-.37.88-1v-1c0-.69-.34-1.05-.88-1.05h-.75v3.07Z"/><path class="cls-3" d="M23.25,284.5l-.32-.78h-.08l0,.8V287h-.61v-4.19H23l1.25,2.51.32.78h.08l-.05-.79v-2.5h.61V287H24.5Z"/><path class="cls-3" d="M25.89,286.4l.44-.4a1.14,1.14,0,0,0,1,.53c.48,0,.74-.23.74-.68s-.16-.55-.59-.65l-.34-.07c-.75-.17-1.1-.52-1.1-1.19s.5-1.18,1.34-1.18a1.43,1.43,0,0,1,1.29.63l-.44.38a1,1,0,0,0-.87-.45c-.45,0-.68.18-.68.6s.17.51.58.61l.34.08c.8.18,1.11.5,1.11,1.19a1.21,1.21,0,0,1-1.39,1.29A1.64,1.64,0,0,1,25.89,286.4Z"/><path class="cls-3" d="M29.09,286.4l.44-.4a1.14,1.14,0,0,0,1,.53c.48,0,.74-.23.74-.68s-.16-.55-.59-.65l-.34-.07c-.75-.17-1.1-.52-1.1-1.19s.5-1.18,1.33-1.18a1.44,1.44,0,0,1,1.3.63l-.44.38a1,1,0,0,0-.87-.45c-.45,0-.68.18-.68.6s.17.51.57.61l.35.08c.79.18,1.11.5,1.11,1.19a1.21,1.21,0,0,1-1.39,1.29A1.64,1.64,0,0,1,29.09,286.4Z"/><path id="path105238-8" data-name="path105238" d="M35.42,320.71a2.84,2.84,0,0,0-2.84-2.83H10.81A2.84,2.84,0,0,0,8,320.71v29.51a2.85,2.85,0,0,0,2.84,2.83H32.58a2.85,2.85,0,0,0,2.84-2.83Z"/><path class="cls-3" d="M11.57,326.41,12,326a1.16,1.16,0,0,0,1,.53c.49,0,.75-.22.75-.68s-.17-.54-.59-.65l-.34-.07c-.75-.17-1.1-.52-1.1-1.19s.5-1.18,1.33-1.18a1.45,1.45,0,0,1,1.3.63l-.44.39a1,1,0,0,0-.87-.46c-.46,0-.68.18-.68.61s.17.51.57.6l.34.08c.8.18,1.11.5,1.11,1.2A1.21,1.21,0,0,1,13,327.1,1.64,1.64,0,0,1,11.57,326.41Z"/><path class="cls-3" d="M15.67,322.84v2.71c0,.67.2,1,.79,1s.79-.32.79-1v-2.71h.64v2.61c0,1.14-.37,1.65-1.43,1.65S15,326.59,15,325.45v-2.61Z"/><path class="cls-3" d="M19.42,327h-.63v-4.19h1.65c.71,0,1.09.45,1.09,1.25,0,.64-.25,1.05-.72,1.18L21.6,327h-.7l-.73-1.71h-.75Zm1-2.24c.3,0,.46-.15.46-.5v-.39c0-.35-.16-.5-.46-.5h-1v1.39Z"/><path class="cls-3" d="M22.34,327v-4.19H24c.72,0,1.09.45,1.09,1.25s-.37,1.25-1.09,1.25H23V327Zm.63-2.25h1c.3,0,.46-.16.46-.5v-.38c0-.34-.16-.49-.46-.49H23Z"/><path class="cls-3" d="M26.38,327h-.64v-4.19H27.4c.71,0,1.08.45,1.08,1.25,0,.64-.24,1.05-.71,1.18l.79,1.76h-.71l-.72-1.71h-.75Zm1-2.24c.3,0,.46-.15.46-.5v-.39c0-.35-.16-.5-.46-.5h-1v1.39Z"/><path class="cls-3" d="M29,326.41l.44-.4a1.14,1.14,0,0,0,1,.53c.48,0,.74-.22.74-.68s-.16-.54-.59-.65l-.34-.07c-.75-.17-1.1-.52-1.1-1.19s.5-1.18,1.33-1.18a1.44,1.44,0,0,1,1.3.63l-.44.39a1,1,0,0,0-.87-.46c-.45,0-.68.18-.68.61s.17.51.57.6l.35.08c.79.18,1.11.5,1.11,1.2s-.51,1.28-1.39,1.28A1.61,1.61,0,0,1,29,326.41Z"/><path d="M24.26,11.51h-.82v.82H23v-.82H22.2v-.42H23v-.82h.42v.82h.82Zm-2.84,5.16c-1.51,0-2.74-.88-2.74-2,0-.89,2.28-.94,2.74-.94s2.73.05,2.73.94C24.15,15.79,22.92,16.67,21.42,16.67Zm-3.07-5.58h.82v-.82h.42v.82h.82v.42h-.82v.82h-.42v-.82h-.82Zm3.09-3.3a5,5,0,1,0,5,5A5,5,0,0,0,21.44,7.79Z"/></g></svg>